<svg  viewBox="0 0 34 30" fill="none" xmlns="http://www.w3.org/2000/svg">
<path d="M24.422 8.36024C24.9093 8.72163 25.5284 8.92032 26.1635 8.92032C26.9694 8.92032 27.7279 8.60845 28.2459 8.06467C29.2079 7.05309 29.0577 5.53925 27.9112 4.68975C27.4232 4.32836 26.8042 4.12936 26.1684 4.12936C25.3628 4.12936 24.6043 4.44124 24.087 4.98501C23.1246 5.99691 23.2752 7.51044 24.422 8.36024Z" fill="#A3A6A8"/>
<path d="M30.8297 11.1019C30.6613 11.1019 30.4912 11.1151 30.325 11.141C28.7616 11.3842 27.7131 12.7052 27.9888 14.0853C28.2314 15.3017 29.4218 16.1844 30.8189 16.1844C30.9869 16.1844 31.1577 16.1712 31.3247 16.1457C32.888 15.9021 33.9362 14.5814 33.6604 13.202C33.4171 11.9852 32.2264 11.1019 30.8297 11.1019Z" fill="#A3A6A8"/>
<path d="M30.7298 19.4114C30.2669 19.1752 29.7419 19.0509 29.2121 19.0509C28.1252 19.0509 27.113 19.5661 26.5703 20.3953C26.1642 21.0163 26.0554 21.7397 26.2663 22.4329C26.4772 23.1262 26.9816 23.706 27.6846 24.0643C28.1479 24.3008 28.6728 24.4254 29.2034 24.4254C30.2895 24.4254 31.3018 23.9105 31.8441 23.0816C32.6828 21.7984 32.183 20.152 30.7298 19.4114Z" fill="#A3A6A8"/>
<path d="M22.0703 24.1888C21.6973 24.1888 21.3279 24.2467 20.9723 24.3605C20.1671 24.6191 19.5247 25.1392 19.1622 25.8248C18.8 26.5104 18.762 27.2793 19.0548 27.9901C19.5149 29.1053 20.7273 29.8548 22.0714 29.8548C22.4443 29.8548 22.8138 29.797 23.1683 29.6829C23.9728 29.4242 24.6149 28.9045 24.9777 28.2177C25.3403 27.5318 25.3786 26.7629 25.0865 26.0533C24.6271 24.9384 23.4144 24.1888 22.0703 24.1888Z" fill="#A3A6A8"/>
<path d="M13.9093 24.223C13.535 24.103 13.1467 24.0421 12.7556 24.0421C11.3425 24.0421 10.0681 24.8301 9.58462 26.0029C9.27579 26.7506 9.31587 27.5591 9.69686 28.2798C10.0775 29.0007 10.7534 29.5473 11.6008 29.8194C11.9744 29.9397 12.3631 30 12.7552 30C14.169 30 15.4431 29.212 15.9262 28.0402C16.2343 27.294 16.1939 26.4854 15.8125 25.7642C15.4309 25.042 14.7553 24.4949 13.9093 24.223Z" fill="#A3A6A8"/>
<path d="M8.68499 20.1763C8.05407 19.2127 6.87834 18.6145 5.61582 18.6145C4.9985 18.6145 4.38815 18.7597 3.8496 19.0331C3.03046 19.4505 2.44486 20.1247 2.20051 20.9296C1.95547 21.7354 2.08095 22.5772 2.55396 23.2997C3.18488 24.2636 4.36096 24.8621 5.62348 24.8621C6.24045 24.8621 6.8508 24.7169 7.389 24.4432C9.07887 23.5823 9.66029 21.668 8.68499 20.1763Z" fill="#A3A6A8"/>
<path d="M4.00705 16.9134C5.80499 16.9134 7.33765 15.7769 7.65067 14.2111C7.82217 13.3508 7.60431 12.4835 7.03649 11.769C6.46936 11.0536 5.62024 10.5763 4.64494 10.4243C4.42883 10.3911 4.21027 10.3742 3.9966 10.3742C2.19867 10.3742 0.665997 11.5103 0.35298 13.0762C0.181483 13.9358 0.39934 14.8031 0.967163 15.5185C1.53464 16.2336 2.38411 16.7113 3.35871 16.8629C3.57378 16.8964 3.79199 16.9134 4.00705 16.9134Z" fill="#A3A6A8"/>
<path d="M8.66217 9.94022C9.56811 9.94022 10.4507 9.65634 11.1475 9.14117C11.938 8.55587 12.4229 7.73251 12.5132 6.82273C12.6035 5.91295 12.2877 5.02778 11.624 4.33022C10.8871 3.55515 9.80549 3.11072 8.65729 3.11072C7.74996 3.11072 6.86738 3.39429 6.17163 3.90947C5.38002 4.49569 4.89411 5.31904 4.80418 6.22759C4.7139 7.13553 5.03006 8.02101 5.69478 8.72011C6.43271 9.49548 7.51398 9.94022 8.66217 9.94022Z" fill="#A3A6A8"/>
<path d="M17.413 7.42834C19.7377 7.42834 21.6223 5.76545 21.6223 3.71417C21.6223 1.66289 19.7377 0 17.413 0C15.0882 0 13.2036 1.66289 13.2036 3.71417C13.2036 5.76545 15.0882 7.42834 17.413 7.42834Z" fill="#A3A6A8"/>
</svg>
