<svg  viewBox="0 0 45 45" fill="none" xmlns="http://www.w3.org/2000/svg">
<path d="M22.5 0C10.0931 0 0 10.0931 0 22.5C0 34.9069 10.0931 45 22.5 45C34.9069 45 45 34.9069 45 22.5C45 10.0931 34.9069 0 22.5 0Z" fill="#D6D6D6"/>
<path d="M22.5 0C10.0931 0 0 10.0931 0 22.5C0 34.9069 10.0931 45 22.5 45V0Z" fill="#C7D0D8"/>
<path d="M20.1187 35.2331L7.93125 23.5144C7.65563 23.2481 7.5 22.8825 7.5 22.5C7.5 22.1175 7.65563 21.7519 7.93125 21.4856L20.1187 9.76685C21.0094 8.9081 22.5 9.54373 22.5 10.7812V16.875H33.2812C34.5731 16.875 35.625 17.9269 35.625 19.2187V25.7812C35.625 27.0731 34.5731 28.125 33.2812 28.125H22.5V34.2187C22.5 35.4637 21.0037 36.0844 20.1187 35.2331Z" fill="white"/>
<path d="M35.625 22.5H7.5C7.5 22.8825 7.65563 23.2481 7.93125 23.5144L20.1187 35.2331C20.4 35.505 20.745 35.6269 21.0825 35.6269C21.8044 35.625 22.5 35.0662 22.5 34.2187V28.125H33.2812C34.5731 28.125 35.625 27.0731 35.625 25.7812V22.5Z" fill="#DEDEDE"/>
</svg>
