<svg  viewBox="0 0 45 45" fill="none" xmlns="http://www.w3.org/2000/svg">
<path d="M22.5 0C34.9069 0 45 10.0931 45 22.5C45 34.9069 34.9069 45 22.5 45C10.0931 45 0 34.9069 0 22.5C0 10.0931 10.0931 0 22.5 0Z" fill="#D6D6D6"/>
<path d="M22.5 0C34.9069 0 45 10.0931 45 22.5C45 34.9069 34.9069 45 22.5 45V0Z" fill="#C7D0D8"/>
<path d="M24.8813 35.2331L37.0687 23.5144C37.3444 23.2481 37.5 22.8825 37.5 22.5C37.5 22.1175 37.3444 21.7519 37.0687 21.4856L24.8813 9.76685C23.9906 8.9081 22.5 9.54373 22.5 10.7812V16.875H11.7188C10.4269 16.875 9.375 17.9269 9.375 19.2187V25.7812C9.375 27.0731 10.4269 28.125 11.7188 28.125H22.5V34.2187C22.5 35.4637 23.9963 36.0844 24.8813 35.2331Z" fill="white"/>
<path d="M9.375 22.5H37.5C37.5 22.8825 37.3444 23.2481 37.0687 23.5144L24.8813 35.2331C24.6 35.505 24.255 35.6269 23.9175 35.6269C23.1956 35.625 22.5 35.0662 22.5 34.2187V28.125H11.7188C10.4269 28.125 9.375 27.0731 9.375 25.7812V22.5Z" fill="#DEDEDE"/>
</svg>
