<svg viewBox="0 0 39 23" fill="none" xmlns="http://www.w3.org/2000/svg">
<g clip-path="url(#clip0)">
<path d="M30.8785 18.1607C30.6119 18.0611 30.259 18.1076 30.09 18.2648C28.6632 19.5909 26.224 20.3826 23.5648 20.3826H8.86391C4.60632 20.3826 1.14258 18.3397 1.14258 15.8288V7.75446C1.14258 7.56846 0.886688 7.41755 0.571289 7.41755C0.25589 7.41755 0 7.56846 0 7.75446V15.8288C0 18.7114 3.97641 21.0564 8.86391 21.0564H23.5648C26.6173 21.0564 29.4175 20.1476 31.0546 18.6257C31.2236 18.4687 31.1448 18.2604 30.8785 18.1607ZM25.8559 9.20758L21.5001 11.7766C21.2769 11.9082 21.2769 12.1215 21.5001 12.253C21.6114 12.3188 21.7578 12.3518 21.9039 12.3518C22.05 12.3518 22.1964 12.3188 22.3079 12.253L26.6637 9.68417C26.8869 9.55257 26.8869 9.33919 26.6637 9.20758C26.4409 9.07615 26.079 9.07615 25.8559 9.20758ZM38.1734 3.59428L36.1822 2.41999C35.0801 1.76985 33.2865 1.76985 32.1844 2.41999L30.1173 3.63902C28.438 2.54967 26.0844 1.93164 23.5648 1.93164H8.86391C6.82482 1.93164 4.83394 2.35015 3.25784 3.10996C1.70405 3.85889 0.617111 4.90526 0.197868 6.05603C0.131515 6.238 0.327896 6.41716 0.636452 6.45629C0.676918 6.4612 0.717384 6.46384 0.756958 6.46384C1.02058 6.46384 1.25743 6.35574 1.31486 6.19764C1.68024 5.19567 2.62674 4.28442 3.98087 3.63165C5.35345 2.96993 7.08755 2.60547 8.86391 2.60547H23.5648C25.7773 2.60547 27.8432 3.1526 29.3083 4.11614L23.233 7.69901H7.30209C6.98639 7.69901 6.7305 7.84975 6.7305 8.03593C6.7305 8.22193 6.98639 8.37284 7.30209 8.37284H22.0904L19.3512 9.9881H7.30209C6.98639 9.9881 6.7305 10.139 6.7305 10.3252C6.7305 10.5112 6.98639 10.6621 7.30209 10.6621H18.2086L14.6649 12.752C13.638 13.3576 12.7978 14.056 12.1679 14.8277L10.5418 16.8199C10.0919 17.3714 10.2752 18.0074 11.0089 18.4401C11.4755 18.7152 12.0816 18.8591 12.7017 18.8591C13.0563 18.8591 13.4158 18.8119 13.7559 18.7154L15.3948 18.2502C15.3951 18.25 15.3956 18.25 15.3959 18.2499L17.1342 17.7566C18.4425 17.3851 19.6268 16.8896 20.6539 16.284L31.2864 10.0135V15.8288C31.2864 16.1978 31.2114 16.5648 31.0635 16.9196C30.9883 17.1003 31.1757 17.2826 31.4822 17.327C31.528 17.3337 31.5738 17.3369 31.6188 17.3369C31.8758 17.3369 32.1091 17.234 32.1731 17.0803C32.343 16.673 32.429 16.2519 32.429 15.8288V9.33971L34.017 8.4032C34.0173 8.40302 34.0173 8.40302 34.0173 8.40285C34.0176 8.40285 34.0176 8.40285 34.0176 8.40267L38.1734 5.95197C39.2755 5.30183 39.2755 4.24424 38.1734 3.59428ZM13.2605 18.1083C12.6642 18.2776 12.1238 18.1446 11.8168 17.9637C11.51 17.7826 11.2844 17.4639 11.5716 17.1123L12.0536 16.5214C12.4559 16.7111 12.8463 16.9168 13.2191 17.1366C13.5919 17.3565 13.9406 17.5867 14.2623 17.824L13.2605 18.1083ZM16.6385 17.1495L15.3165 17.5246C14.9246 17.2249 14.4929 16.9348 14.0269 16.6602C13.561 16.3854 13.0691 16.1306 12.5612 15.8997L13.1974 15.1201C13.6366 14.5822 14.1876 14.0837 14.8413 13.632L19.1617 16.1799C18.3958 16.5653 17.5505 16.8904 16.6385 17.1495ZM19.996 15.719L15.623 13.14L28.4323 5.58558L32.8054 8.16455L19.996 15.719ZM33.6135 7.68813L29.2405 5.10916L30.6508 4.2774L35.0242 6.85638L33.6135 7.68813ZM37.3656 5.47538L35.832 6.37978L31.459 3.80081L32.9922 2.89641C33.3207 2.70268 33.7519 2.606 34.1833 2.606C34.6145 2.606 35.0459 2.70268 35.3741 2.89641L37.3653 4.07069C38.022 4.45797 38.022 5.0881 37.3656 5.47538ZM7.30209 6.08358H25.1269C25.4423 6.08358 25.6982 5.93285 25.6982 5.74667C25.6982 5.56049 25.4423 5.40975 25.1269 5.40975H7.30209C6.98639 5.40975 6.7305 5.56049 6.7305 5.74667C6.7305 5.93285 6.98639 6.08358 7.30209 6.08358Z" fill="#A3A6A8"/>
</g>
<defs>
<clipPath id="clip0">
<rect width="39" height="23" fill="white"/>
</clipPath>
</defs>
</svg>
