<svg width="195" height="130" viewBox="0 0 195 130" fill="none" xmlns="http://www.w3.org/2000/svg">
<path d="M170.082 0H24.9177C11.1778 0 0 7.45215 0 16.6121V113.388C0 122.548 11.1778 130 24.9177 130H170.082C183.822 130 195 122.548 195 113.388V16.6121C195 7.45215 183.822 0 170.082 0ZM183.514 113.388C183.514 118.326 177.488 122.343 170.082 122.343H24.9177C17.5112 122.343 11.4856 118.326 11.4856 113.388V99.4216L49.2878 77.9789C50.6672 77.1964 52.6797 77.189 54.0721 77.9599L77.7517 91.0686C80.0349 92.3322 83.3865 92.2287 85.4846 90.8284L141.749 53.2619C142.766 52.5827 143.951 52.5167 144.57 52.5378C145.187 52.5588 146.358 52.7056 147.266 53.4508L183.514 83.2061V113.388H183.514ZM183.514 71.0595L156.181 48.6228C153.471 46.3976 149.453 45.0371 145.158 44.8901C140.867 44.7454 136.659 45.8225 133.621 47.8512L81.0591 82.9463L61.4105 72.0693C55.7133 68.9152 47.4852 68.948 41.8446 72.1475L11.4856 89.3679V16.6121C11.4856 11.6744 17.5112 7.6573 24.9177 7.6573H170.082C177.489 7.6573 183.514 11.6744 183.514 16.6121V71.0595Z" fill="#0272C4"/>
<path d="M61.3848 15.9948C46.1143 15.9948 33.6914 24.2772 33.6914 34.4571C33.6914 44.6372 46.1147 52.9194 61.3848 52.9194C76.655 52.9194 89.0783 44.6372 89.0783 34.4571C89.0783 24.277 76.6554 15.9948 61.3848 15.9948ZM61.3848 45.2623C52.4476 45.2623 45.177 40.415 45.177 34.4571C45.177 28.4989 52.4476 23.6519 61.3848 23.6519C70.3221 23.6519 77.5927 28.4992 77.5927 34.4571C77.5927 40.415 70.3221 45.2623 61.3848 45.2623Z" fill="#0272C4"/>
</svg>
