<svg  viewBox="0 0 337 300" fill="none" xmlns="http://www.w3.org/2000/svg">
<g clip-path="url(#clip0)">
<path d="M331.03 128.52C327.536 123.823 322.239 120.587 316.082 119.36C320.054 112.596 319.892 104.157 314.832 97.3573C311.233 92.5164 305.802 89.3899 299.891 88.2066C300.946 86.4167 301.725 84.485 302.19 82.4479C303.481 76.7831 302.221 71.0107 298.634 66.1927C295.14 61.4938 289.844 58.2574 283.686 57.0328C287.658 50.2694 287.496 41.8305 282.436 35.0281C275.039 25.0832 259.926 22.3481 248.752 28.9353L224.558 43.1992C211.661 37.3765 197.944 33.2451 183.708 30.8922C179.209 24.8108 173.977 19.1575 168.12 14.1037L158.11 5.46802C150.78 -0.858278 139.285 -1.80814 130.774 3.21124C120.706 9.14615 117.939 21.2677 124.606 30.2308C124.868 30.5855 125.126 30.9426 125.38 31.2996C92.5702 37.2094 62.6682 52.7093 40.5361 75.4212C16.5194 100.07 3.29102 131.637 3.29102 164.308C3.29102 170.57 3.77181 176.843 4.72312 182.95C12.0534 230.422 47.5758 271.333 97.4244 289.719C115.911 296.54 135.526 300 155.717 300C187.693 300 218.302 291.282 244.237 274.791C269.609 258.655 288.591 236.387 299.136 210.395C300.12 207.974 298.709 205.298 295.988 204.424C293.266 203.549 290.263 204.804 289.28 207.228C279.461 231.432 261.78 252.168 238.144 267.199C213.998 282.555 185.495 290.671 155.717 290.671C140.321 290.671 125.288 288.508 110.9 284.242L153.534 259.108C153.536 259.106 153.539 259.106 153.541 259.104C153.544 259.104 153.544 259.101 153.547 259.099L188.979 238.211H188.982C192.162 236.334 194.335 233.469 195.096 230.139C195.857 226.808 195.116 223.412 193.008 220.58L192.54 219.949L199.423 215.891C204.334 212.995 210.239 211.86 216.055 212.691C224.476 213.895 233.027 212.247 240.134 208.056L297.223 174.401C296.832 178.81 296.189 183.193 295.292 187.502C294.762 190.036 296.642 192.471 299.488 192.941C299.809 192.996 300.133 193.021 300.449 193.021C302.925 193.021 305.126 191.451 305.594 189.205C307.047 182.25 307.882 175.125 308.098 167.99L324.186 158.505C329.598 155.315 333.293 150.437 334.583 144.775C335.877 139.11 334.614 133.338 331.03 128.52ZM214.384 49.1959L198.374 58.635L195.222 51.075C193.905 47.9211 192.396 44.8289 190.725 41.803C198.847 43.6364 206.756 46.1083 214.384 49.1959ZM48.4525 81.5347C69.7233 59.7062 98.6971 45.0326 130.394 39.9445C135.479 50.9125 136.698 63.1669 133.659 74.8467L120.883 123.981C118.875 122.072 116.268 120.756 113.332 120.225C109.588 119.545 105.775 120.207 102.595 122.083L66.4066 143.415C66.404 143.415 66.404 143.415 66.4014 143.417C66.4014 143.417 66.3989 143.417 66.3989 143.42L14.2054 174.188C13.92 170.911 13.7709 167.608 13.7709 164.308C13.7709 133.885 26.089 104.487 48.4525 81.5347ZM184.827 228.278C184.624 229.166 184.042 229.933 183.191 230.434H183.194L152.073 248.779L94.3134 172.096C92.7013 169.956 89.4463 169.386 87.0423 170.822C84.6409 172.257 83.9981 175.152 85.6102 177.292L143.334 253.931L98.9079 280.122C54.762 262.933 23.1708 226.632 15.5758 184.392L67.831 153.687L73.8448 161.675C74.8578 163.017 76.5136 163.742 78.2028 163.742C79.2055 163.742 80.2211 163.488 81.1159 162.953C83.5199 161.517 84.1626 158.62 82.5506 156.48L76.5779 148.549L108.382 129.861C109.228 129.36 110.244 129.186 111.242 129.366C112.239 129.547 113.1 130.065 113.664 130.82L184.271 225.733C184.832 226.486 185.03 227.39 184.827 228.278ZM324.314 142.916C323.579 146.139 321.478 148.913 318.398 150.728L300.007 161.57C300.002 161.572 299.997 161.577 299.989 161.579L234.346 200.279C229.435 203.174 223.53 204.312 217.714 203.478C209.296 202.277 200.744 203.922 193.635 208.113L186.752 212.171L128.923 134.436L143.871 76.9524C147.72 62.1438 145.692 46.5455 138.359 32.9567C138.292 32.8148 138.22 32.6775 138.138 32.5425C136.729 29.9744 135.13 27.4819 133.343 25.0786C129.867 20.4049 131.309 14.0854 136.562 10.9887C141 8.37253 146.995 8.86692 150.816 12.1651L160.825 20.8031C171.652 30.1484 180.15 41.739 185.395 54.3229L190.846 67.3943C190.856 67.4195 190.866 67.4401 190.876 67.463C190.889 67.4928 190.905 67.5248 190.918 67.5546C190.956 67.6347 190.992 67.7079 191.031 67.7697C191.136 67.9665 191.252 68.1611 191.391 68.3465C192.99 70.4957 196.24 71.0839 198.652 69.6603L254.54 36.715C260.895 32.9682 269.491 34.5223 273.7 40.1803C277.908 45.8382 276.163 53.4898 269.807 57.2365L264.955 60.0976C264.955 60.0976 264.953 60.0976 264.95 60.0999L254.128 66.4811C254.113 66.4902 254.103 66.4994 254.087 66.5063C254.025 66.5452 253.966 66.5818 253.917 66.6184C251.681 68.081 251.102 70.8619 252.652 72.9447C254.249 75.0939 257.502 75.6822 259.916 74.2585L270.745 67.8727C273.823 66.0622 277.507 65.4237 281.125 66.0783C284.742 66.7329 287.861 68.6028 289.898 71.3448C291.936 74.0846 292.656 77.369 291.921 80.5894C291.186 83.812 289.085 86.5861 286.005 88.4011L270.326 97.6457C267.912 99.067 267.251 101.96 268.85 104.109C269.858 105.464 271.524 106.199 273.224 106.199C274.216 106.199 275.222 105.947 276.111 105.423L278.538 103.993L286.936 99.0418C293.294 95.295 301.887 96.8492 306.096 102.507C310.304 108.167 308.559 115.817 302.203 119.566L294.371 124.182C294.33 124.205 294.289 124.23 294.248 124.255L286.524 128.808C284.11 130.229 283.449 133.125 285.048 135.274C286.056 136.629 287.722 137.364 289.422 137.364C290.414 137.364 291.42 137.112 292.309 136.588L294.736 135.157C294.736 135.157 294.736 135.155 294.739 135.155L303.136 130.206C306.214 128.391 309.901 127.751 313.521 128.407C317.141 129.06 320.257 130.932 322.296 133.672C324.332 136.411 325.05 139.696 324.314 142.916Z" fill="#3526E2"/>
</g>
<defs>
<clipPath id="clip0">
<rect width="337" height="300" fill="white"/>
</clipPath>
</defs>
</svg>
